<svg xmlns="http://www.w3.org/2000/svg" xmlns:xlink="http://www.w3.org/1999/xlink" version="1.1" id="Layer_1" x="0px" y="0px" width="537.6033305704703" height="186.01075237738274" viewBox="0 0 1000 345.901" enable-background="new 0 0 1000 345.901" xml:space="preserve">
<g>
	<path fill="#13396C" d="M252.781,97.432c4.271,5.773,6.816,13.712,6.816,24.097c0,24.581-15.317,32.598-25.36,32.877   c-9.282,0-14.835-4.249-14.835-26.862V92.019l-40.155-6.576v41.299c0,27.145-1.966,28.907-19.547,30.392v9.822h72.271   c20.85,0,38.432-2.765,50.461-9.822c13.591-7.979,22.573-19.807,22.573-38.131c0-4.892-0.682-9.382-1.965-13.391L252.781,97.432z"/>
	<path fill="#13396C" d="M219.422,30.633c0-6.777,0.281-12.069,1.524-12.83c0.742-0.723,3.528-1.484,9.802-1.484   c9.002,0,22.295,6.014,22.295,28.146c0,8.26-1.886,14.716-5.133,19.406l42.34-5.172c3.369-4.891,5.494-10.785,5.494-17.763   c0-26.863-20.85-37.168-56.193-37.168h-78.347v9.824c16.058,1.483,18.063,3.207,18.063,30.352v28.227l40.155-4.891V30.633z"/>
	<path fill="#13396C" d="M440.708,127.984c-5.052,20.169-15.156,29.671-29.73,29.671c-17.001,0-30.372-15.798-37.027-40.537   l-48.815-7.899c8.619,35.565,38.591,61.507,81.073,61.507c30.392,0,56.213-13.392,71.127-36.809L440.708,127.984z"/>
	<path fill="#13396C" d="M404.683,13.071c12.731,0,24.217,9.704,31.534,27.947l41.761-5.052C463.645,13.472,438.805,0,409.735,0   c-43.685,0-69.887,24.86-80.934,54.089l43.645-5.333C378.08,25.02,390.469,13.071,404.683,13.071"/>
	<path fill="#13396C" d="M557.066,3.769h-55.474v9.824c9.042,0.721,15.317,2.486,19.105,7.738c2.245,3.168,3.569,5.533,4.35,8.941   l48.616-5.894L557.066,3.769z"/>
	<path fill="#13396C" d="M678.574,3.769h-64.013v9.824c8.58,0.36,14.536,1.443,18.444,3.608l45.568-5.573V3.769z"/>
	<polygon fill="#13396C" points="626.409,158.177 634.67,168.683 656.261,168.683 656.261,163.03  "/>
	<path fill="#13396C" d="M524.207,144.342c-1.264,8.782-7.798,12.309-18.845,12.833v9.742h62.53v-9.742   c-16.38-0.763-23.155-3.97-24.56-12.511l-18.804-3.087C524.408,142.619,524.287,143.542,524.207,144.342"/>
	<polygon fill="#33A9DE" points="772.498,0 768.97,0.721 772.578,0.281  "/>
	<polygon fill="#33A9DE" points="680.379,166.957 680.098,166.917 680.098,166.957  "/>
	<path fill="#33A9DE" d="M219.422,85.363h7.317c10.345,0,19.947,3.809,26.063,12.069l50.22,8.139   c-5.714-17.522-22.795-26.744-42.422-29.029v-0.48c9.743-1.203,22.514-6.938,29.65-17.322l-42.34,5.132   c-4.591,6.696-11.908,9.983-20.429,9.983h-8.06V67.32l-40.155,4.891v13.231l40.155,6.536V85.363z"/>
	<path fill="#33A9DE" d="M444.378,91.377c0,14.755-1.264,26.905-3.688,36.607l36.666,5.934c8.702-13.672,13.713-30.753,13.713-50.56   c0-18.243-4.811-34.282-13.091-47.394l-41.761,5.092C441.31,53.768,444.378,70.648,444.378,91.377"/>
	<path fill="#33A9DE" d="M369.318,79.108c0-11.668,1.103-21.772,3.147-30.352l-43.684,5.333   c-4.149,10.905-6.195,22.453-6.195,33.559c0,7.458,0.903,14.675,2.548,21.572l48.815,7.939   C370.942,106.052,369.318,93.142,369.318,79.108"/>
	<path fill="#33A9DE" d="M656.242,74.297c0-26.343,1.002-40.136,2.023-47.955c1.224-8.781,7.759-12.269,20.33-12.75v-1.925   l-45.59,5.494c3.648,2.045,5.594,4.971,6.155,9.181c1.042,7.818,2.023,21.611,2.023,47.955v33.639h-0.501l-67.039-83.558   l-48.574,5.894c0.981,4.131,1.141,9.704,1.141,19.929v46.189c0,23.537-0.82,37.048-1.682,45.228l18.804,3.087   c-0.041-0.121-0.041-0.282-0.041-0.362c-1.022-7.737-2.004-21.57-2.004-47.953V50.2h0.461l84.643,108.017l29.851,4.813V74.297z"/>
	<path fill="#33A9DE" d="M738.597,166.957v-9.782l-7.276-0.763c-11.527-1.241-11.527-3.809-8.3-14.555l7.559-24.097l21.109-60.144   l20.026,60.144l9.042,25.62c3.29,9.022,2.788,11.549-6.535,12.752l-7.498,1.042v9.782h78.828v-9.782   c-12.329-1.525-16.84-2.769-24.838-24.579c-9.585-25.621-20.368-55.292-31.175-85.123L772.578,0.281l-3.608,0.44l-13.792,2.807   l-50.22,129.789c-8.28,21.089-12.07,22.093-24.88,23.858v9.742l0.301,0.04H738.597z"/>
	<path fill="#010102" d="M23.517,294.341c0,0.682,2.846,0.881,5.914,0.881h7.477c13.513,0,13.091-1.002,15.478-10.303   c0.161-0.723,1.163-1.004,2.145-1.004c0.982,0,1.966,0.281,2.386,0.684v27.344c-0.301,0.32-1.283,0.602-2.265,0.602   c-0.982,0-1.965-0.482-2.266-1.162c-2.085-8.02-2.666-8.02-3.93-8.861c-1.563-1.002-9.583-1.121-14.915-1.121   c-3.93,0-10.023,0-10.023,1.242v22.252c0,5.092,0.301,9.303,1.282,13.109c0.401,1.566,7.879,2.809,8.981,2.809   c0.46,0,0.581,1.283,0.581,2.084c0,0.762-0.121,1.564-0.279,2.004c-5.634-0.279-10.145-0.719-16.339-0.719   c-6.457,0-10.386,0.439-16.88,0.719c-0.282-0.279-0.582-1.242-0.582-2.125c0-0.84,0.3-1.963,0.582-1.963   c1.684,0,8.699-1.082,9.441-2.809c0.822-3.246,0.981-10.145,0.981-12.668v-54.209c0-2.566-0.159-8.902-0.981-12.15   c-0.742-1.684-8.04-3.047-9.724-3.047c-0.3,0-0.581-0.762-0.581-1.723c0-1.004,0.281-2.127,0.581-2.406   c0,0,7.298,0.279,16.74,0.279c13.272,0,30.132-1.082,45.488-1.082c1.003,7.016,2.847,12.789,4.109,19.125   c-0.44,0.4-1.563,0.684-2.545,0.684c-0.983,0-1.846-0.283-1.966-0.963c-3.127-11.268-8.86-12.109-16.339-12.109h-9.442   c-5.793,0-12.108,0.16-12.409,1.846c-0.521,2.645-0.701,8.578-0.701,11.826V294.341z"/>
	<path fill="#010102" d="M104.829,258.294c-0.702-1.684-7.758-2.965-9.441-2.965c-0.302,0-0.541-0.963-0.541-1.848   c0-0.801,0.239-1.963,0.541-2.205c6.475,0.242,10.424,0.686,16.9,0.686c6.215,0,10.686-0.443,16.359-0.686   c0.119,0.402,0.279,1.404,0.279,2.086c0,0.885-0.16,1.967-0.582,1.967c-1.143,0-8.579,1.402-9.021,2.965   c-0.981,3.811-1.282,8.061-1.282,13.111v53.488c0,5.092,0.301,9.303,1.282,13.07c0.442,1.564,7.879,2.848,9.021,2.848   c0.422,0,0.582,1.283,0.582,2.125c0,0.721-0.16,1.523-0.279,2.004c-5.674-0.32-10.145-0.76-16.359-0.76   c-6.477,0-10.426,0.439-16.9,0.76c-0.302-0.32-0.541-1.283-0.541-2.166c0-0.799,0.239-1.963,0.541-1.963   c1.684,0,8.739-1.082,9.441-2.848c0.862-3.168,0.982-9.943,0.982-12.51v-54.648C105.812,268.317,105.691,261.542,104.829,258.294"/>
	<path fill="#010102" d="M180.771,324.491c0,5.094,0.28,8.582,1.283,12.389c0.4,1.285,3.647,1.404,9.563,1.404h6.776   c5.332,0,13.632-0.281,17.721-2.406c2.688-1.361,6.617-6.775,8.882-14.232c0.16-0.523,0.983-0.803,1.965-0.803   c1.403,0,3.128,0.4,3.529,0.803c-2.667,7.658-6.597,17.201-7.6,23.416c-15.356,0-29.71-0.881-48.034-0.881   c-6.615,0-17.039,0.4-17.039,0.4c-0.121-0.121-0.402-0.924-0.402-2.207c0-0.842,0.12-1.844,0.402-1.844   c1.684,0,8.579-0.961,9.742-2.965c0.983-1.688,0.983-7.98,0.983-13.193v-53.246c0-2.566-0.161-9.584-0.983-12.832   c-0.741-1.684-7.759-2.965-9.443-2.965c-0.299,0-0.581-0.963-0.581-1.848c0-0.801,0.282-1.963,0.581-2.244   c6.477,0.281,10.427,0.842,16.86,0.842c6.215,0,10.726-0.561,16.339-0.842c0.182,0.441,0.302,1.443,0.302,2.125   c0,0.844-0.12,1.967-0.581,1.967c-1.103,0-8.581,1.402-8.981,2.965c-1.003,3.771-1.283,8.02-1.283,13.111V324.491z"/>
	<path fill="#010102" d="M291.373,251.237c2.827,8.861,17.903,45.51,27.866,70.609c0.182,0.24,0.421,0.24,0.582,0.24   c0.12,0,0.581-0.121,0.702-0.561c0,0,13.791-32.396,21.972-53.369c2.545-6.494,5.613-16.92,5.613-16.92   c4.512,0.281,9.042,0.604,11.708,0.604c4.931,0,12.229-0.322,15.757-0.604c0.161,0.441,0.421,1.404,0.421,2.125   c0,0.844-0.26,1.967-0.701,1.967h-0.24c-2.025,0-6.215,1.441-7.939,2.805c-1.103,0.883-1.684,5.814-1.684,9.463   c0,2.766,0.862,38.891,1.283,57.135c0.16,5.494,0.701,9.346,2.125,12.992c0.821,1.967,8.299,3.129,9.401,3.129   c0.462,0,0.581,1.082,0.581,1.963c0,0.682-0.119,1.684-0.279,2.084c-5.633-0.279-10.565-0.68-16.76-0.68   c-6.476,0-10.426,0.4-16.921,0.68c-0.24-0.279-0.521-1.402-0.521-2.244s0.28-1.803,0.521-1.803c1.725,0,6.776-1.162,8.46-2.166   c0.983-0.563,1.685-4.051,1.685-6.014c0-1.965,0.159-5.373,0-7.457l-1.685-49.598c-0.119-2.408-1.103-8.303-2.085-8.303   c-0.3,0-0.421,0.281-0.701,0.961l-29.43,70.41c-0.581,1.283-2.687,6.092-5.233,6.092c-0.399,0-0.86-0.158-1.263-0.279   l-32.275-81.996c-0.522,30.715-2.206,69.729-2.206,71.453c0,1.203,0.401,3.045,0.821,3.648c1.385,1.803,9.724,3.248,10.826,3.248   c0.461,0,0.582,1.082,0.582,2.084c0,0.842-0.121,1.563-0.282,1.963c-5.632-0.279-10.143-0.68-16.338-0.68   c-6.495,0-9.984,0.4-16.479,0.68c-0.282-0.279-0.702-1.283-0.702-2.084c0-0.881,0.42-1.963,0.702-1.963   c1.684,0,9.161-1.162,11.005-3.129c2.226-2.564,2.387-7.297,2.507-12.229c0.582-33.842,1.563-55.531,1.563-61.547   c0-1.965-0.161-4.129-0.581-5.693c-0.703-1.686-9.442-2.926-11.126-2.926c-0.282,0-0.522-1.123-0.522-1.967   c0-0.842,0.24-1.844,0.522-2.125c6.494,0.281,9.321,0.725,15.777,0.725C283.193,251.962,288.286,251.519,291.373,251.237"/>
	<path fill="#010102" d="M501.714,250.558c9.282,0,21.952,3.246,33.38,6.293c0,0,0.562,16.078,0.562,17.523   c0,1.402-1.546,2.084-2.948,2.084c-0.86,0-1.563-0.281-1.845-0.682c-0.861-4.371-4.229-19.324-28.748-19.324   c-19.005,0-32.917,18.723-32.917,40.855c0,19.406,14.373,41.979,36.325,41.979c7.317,0,13.512-0.6,18.325-3.125   c0.82-0.404,0.981-1.123,0.981-2.084c0-3.852-0.161-11.551-0.161-11.551v-1c0-2.408,0-9.143-1.123-12.109   c-0.86-2.125-9.141-3.129-10.825-3.129c-0.741,0-0.741-3.367,0-4.049c7.178,0.281,11.246,0.682,18.425,0.682   c5.912,0,9.563-0.4,15.196-0.682c0.158,0.402,0.279,1.123,0.279,1.963c0,1.004-0.121,2.086-0.562,2.086   c-1.122,0-6.454,1.564-8.138,2.566c-1.265,0.842-1.445,2.646-1.445,9.424c0,5.049,0.461,8.74,0.461,10.145   c0,4.25,1.966,6.334,1.966,7.738c0,0.84-0.981,1.563-3.529,2.525c-7.476,2.846-15.356,6.615-35.223,6.615   c-24.92,0-44.626-21.209-44.626-46.189C455.524,272.81,475.672,250.558,501.714,250.558"/>
	<path fill="#010102" d="M642.73,277.298c0,7.459-6.195,17.445-16.781,22.373c-0.703,0.283-1.244,0.766-0.821,1.445   c1.563,3.246,7.016,14.797,16.178,24.779c7.458,8.141,15.757,14.795,21.952,14.795c0.303,0.521,0.461,1.244,0.461,1.965   c0,0.842,0,1.242-0.461,2.123c-0.981,0.283-3.066,0.404-3.769,0.404c-16.338,0-26.885-9.984-34.243-20.289   c-9.862-13.914-13.391-20.691-18.443-22.936c-1.143-0.439-3.368-0.559-5.213-0.559c-1.843,0-3.368,0-3.368,2.404v20.688   c0,2.648,0,9.424,1.123,12.27c1.104,2.809,10.005,4.051,11.128,4.051c0.68,0,0.562,3.248,0.28,4.088   c-5.634-0.279-10.024-0.719-18.303-0.719c-9.444,0-17.162,0.719-17.162,0.719c-0.179-0.121-0.461-1.242-0.461-2.525   c0-0.842,0.161-1.844,0.461-1.844c1.663,0,8.581-0.961,9.684-2.965c0.981-1.688,0.981-7.98,0.981-13.193v-53.246   c0-2.566-0.121-8.902-0.981-12.15c-0.702-1.684-8.021-3.047-9.684-3.047c-0.3,0-0.581-0.762-0.581-1.682   c0-1.045,0.281-2.168,0.581-2.447l16.859,0.279c8.302,0,11.55-0.561,19.868-0.561C623.564,251.519,642.73,258.013,642.73,277.298    M629.759,277.298c0-13.391-7.478-19.004-19.988-19.004c-3.368,0-8.06,0.402-10.023,1.002c-0.521,0.121-0.983,0.684-0.983,1.244   c-0.24,3.811-0.542,4.771-0.542,13.674v17.039c0,3.77,6.217,4.088,12.251,4.088h3.529   C619.213,295.341,629.759,289.409,629.759,277.298"/>
	<path fill="#010102" d="M737.274,250.558c24.758,0,45.028,21.41,45.028,47.713c0,26.342-20.271,47.631-45.028,47.631   c-24.799,0-44.969-21.289-44.969-47.631C692.306,271.968,712.476,250.558,737.274,250.558 M706.261,295.181   c0,21.854,11.428,44.629,33.22,44.629c19.064,0,28.907-19.809,28.907-38.814c0-21.852-11.405-44.504-33.259-44.504   C716.244,256.491,706.261,276.298,706.261,295.181"/>
	<path fill="#010102" d="M844.049,251.237c0.121,0.441,0.281,1.121,0.281,1.965c0,1.004-0.16,2.127-0.582,2.127   c-1.104,0-8.58,1.441-8.98,2.926c-0.984,3.85-1.284,8.059-1.284,13.111v31.395c0,20.889,9.002,34.844,25.902,34.844   c13.673,0,24.057-7.5,24.057-31.717v-35.203c0-2.408-0.121-9.184-0.962-12.43c-0.723-1.686-9.422-3.168-11.148-3.168   c-0.68,0-0.68-3.125,0-3.85c6.497,0.281,10.145,0.883,16.641,0.883c6.216,0,10.145-0.602,15.758-0.883   c0.16,0.441,0.32,1.404,0.32,2.125c0,0.844-0.16,1.725-0.562,1.725c-1.123,0-10.706,1.684-11.146,3.168   c-1.002,3.85-1.122,8.059-1.122,13.111v34.24c0,31.115-14.915,38.893-35.203,38.893c-21.25,0-34.803-11.146-34.803-41.738v-31.916   c0-2.568-0.12-9.344-0.984-12.59c-0.702-1.686-7.717-2.926-9.441-2.926c-0.26,0-0.542-1.004-0.542-1.807   c0-0.881,0.282-2.004,0.542-2.285c6.477,0.281,10.426,0.725,16.9,0.725C833.904,251.962,838.415,251.519,844.049,251.237"/>
	<path fill="#010102" d="M969.406,251.519c11.548,0,30.594,7.898,30.594,27.184c0,10.428-9.583,28.189-31.476,28.189   c-3.367,0-9.263-0.283-11.788-0.604c-0.321,0-1.122,0.32-1.122,1.443v16.76c0,2.688,0,9.465,1.122,12.23   c1.124,2.848,10.024,4.131,11.106,4.131c0.682,0,0.602,3.207,0.28,4.047c-5.613-0.279-9.943-0.68-18.283-0.68   c-9.422,0-17.16,0.68-17.16,0.68c-0.16-0.121-0.401-1.283-0.401-2.564c0-0.803,0.08-1.805,0.401-1.805   c1.683,0,8.579-0.961,9.701-2.926c0.962-1.686,0.962-8.061,0.962-13.273v-53.205c0-2.566-0.118-8.861-0.962-12.109   c-0.719-1.684-8.019-3.129-9.701-3.129c-0.321,0-0.563-0.721-0.563-1.682c0-1.004,0.241-2.086,0.563-2.365l16.84,0.279   C957.86,252.12,961.147,251.519,969.406,251.519 M955.614,294.782c0,6.012,8.581,6.455,15.636,6.455   c9.303,0,15.799-9.543,15.799-20.449c0-12.512-7.056-23.055-19.888-23.055c-3.368,0-7.899,0.4-9.863,1.004   c-1.122,0.279-1.684,1.521-1.684,15.477V294.782z"/>
</g>
</svg>