
<svg xmlns="http://www.w3.org/2000/svg" version="1.1" xmlns:xlink="http://www.w3.org/1999/xlink" preserveAspectRatio="none" x="0px" y="0px" width="200px" height="200px" viewBox="0 0 200 200">
<defs>
<g id="Layer0_0_FILL">
<path fill="#347CF8" stroke="none" d="
M 170.75 170.75
Q 200 141.45 200 100 200 58.65 170.75 29.4 141.45 0 100 0 58.75 0 29.4 29.4 0 58.65 0 100 0 141.45 29.4 170.75 58.75 200 100 200 141.45 200 170.75 170.75
M 163.85 67.95
Q 168.4 68.45 167.4 72.45 157.2 150.4 72.85 171.65 69 171.65 67.45 170.1 67.45 169.65 67.2 169.65 66.1 167.2 67.2 166.4 68 164.85 70.45 163.95 121 142.2 131.75 93.65
L 88.85 93.65
Q 85.4 93.65 84 91.2 83.55 91.2 84 88.2 84 87.75 84 86.95 88.85 71.95 99.4 68.45 101.75 67.95 103.65 67.95
L 163.85 67.95
M 130.1 27
Q 130.1 28.1 130.75 28.1 131.2 29.95 130.75 30.95 129.3 33.4 127.4 33.95 76.3 55.65 66.1 103.2
L 108.95 103.2
Q 112.95 104.2 113.85 106.1 114.4 106.65 113.85 109.4 113.3 109.95 113.3 110.45 108.95 126.2 97.95 128.75 96.45 129.2 93.75 129.2
L 33.85 129.2
Q 29.45 128.75 29.95 124.95 40.65 46.3 124.95 25.65 129.3 25.1 130.1 27 Z"/>
</g>
</defs>

<g transform="matrix( 1, 0, 0, 1, 0,0) ">
<use xlink:href="#Layer0_0_FILL"/>
</g>
</svg>
